# xmcd CD database file
#
# Track frame offsets:
#	150
#	42736
#	71685
#	97287
#	125598
#	164405
#	176829
#	192368
#	208534
#	225218
#	290225
#	316556
#	334898
#
# Disc length: 4794 seconds
#
# Revision: 0
# Processed by: cddbd v1.5.2PL0 Copyright (c) Steve Scherf et al.
# Submitted via: CDex 1.51
#
DISCID=c912b80d
DTITLE=Pat Metheny Group - Still Life (Talking)
DYEAR=1987
DGENRE=Jazz
TTITLE0=Minuano (Six Eight)
TTITLE1=So May It Secretly Begin
TTITLE2=Last Train Home
TTITLE3=(It's Just) Talk
TTITLE4=Third Wind
TTITLE5=Distance
TTITLE6=In Her Family
TTITLE7=Unquity Road
TTITLE8=Unity Village
TTITLE9=Open
TTITLE10=Story From A Stranger
TTITLE11=Oasis
TTITLE12=Sirabhorn
EXTD=YEAR: 1987
EXTT0=
EXTT1=
EXTT2=
EXTT3=
EXTT4=
EXTT5=
EXTT6=
EXTT7=
EXTT8=
EXTT9=
EXTT10=
EXTT11=
EXTT12=
PLAYORDER=
